<?xml version="1.0" standalone="no"?>
<!DOCTYPE svg PUBLIC "-//W3C//DTD SVG 20010904//EN"
 "http://www.w3.org/TR/2001/REC-SVG-20010904/DTD/svg10.dtd">
<svg version="1.0" xmlns="http://www.w3.org/2000/svg"
 width="355.000000pt" height="355.000000pt" viewBox="0 0 355.000000 355.000000"
 preserveAspectRatio="xMidYMid meet">
<metadata>
Created by potrace 1.11, written by Peter Selinger 2001-2013
</metadata>
<g transform="translate(0.000000,355.000000) scale(0.100000,-0.100000)"
fill="#000000" stroke="none">
<path d="M387 3538 c-5 -16 20 -68 33 -68 14 0 13 7 -7 38 l-17 27 22 -19 c25
-22 42 -15 22 9 -17 20 0 20 66 0 58 -18 54 -17 54 -7 0 28 -163 47 -173 20z"/>
<path d="M358 3448 c-25 -20 -31 -67 -13 -95 9 -14 15 -26 13 -27 -2 -1 -16
-6 -33 -12 -40 -13 -55 -62 -31 -99 9 -14 21 -23 27 -19 7 4 5 12 -5 23 -20
22 -21 37 -1 21 20 -17 32 -5 15 15 -16 19 -7 19 59 -1 29 -8 56 -13 59 -9 10
10 -15 21 -76 35 -31 8 -49 15 -40 18 10 2 42 -4 72 -12 64 -19 66 -19 66 -6
0 6 -19 15 -43 22 -30 8 -47 19 -56 37 -21 44 -24 58 -7 37 9 -11 19 -17 22
-13 4 4 1 13 -6 22 -11 13 -8 15 16 15 16 -1 46 -7 67 -14 20 -8 40 -10 43 -5
7 12 -39 29 -101 38 -37 6 -45 10 -32 16 11 5 43 1 78 -9 69 -19 69 -19 69 -7
0 10 -96 41 -127 41 -11 0 -26 -6 -35 -12z"/>
<path d="M1070 3195 c0 -8 2 -15 4 -15 2 0 6 7 10 15 3 8 1 15 -4 15 -6 0 -10
-7 -10 -15z"/>
<path d="M240 3154 c-14 -35 -12 -57 4 -80 22 -29 30 -10 10 23 l-18 28 22
-19 c25 -22 42 -15 22 9 -16 20 0 20 65 0 27 -8 51 -12 53 -10 11 10 -13 23
-65 34 -81 18 -83 19 -40 20 21 1 54 -6 74 -14 37 -16 50 -14 39 4 -9 14 -73
31 -119 31 -31 0 -39 -4 -47 -26z"/>
<path d="M208 3043 c-27 -7 -40 -60 -23 -94 9 -16 20 -29 25 -29 15 0 12 16
-5 30 -8 7 -15 19 -15 27 0 11 6 8 21 -8 l21 -24 -5 23 c-6 26 2 27 68 7 50
-14 62 -14 51 3 -7 11 -84 32 -123 33 -26 0 -27 1 -7 11 16 7 36 6 77 -6 64
-19 67 -19 67 -7 0 4 -26 16 -58 25 -60 16 -65 17 -94 9z"/>
<path d="M881 3001 c-8 -6 -9 -11 -3 -15 6 -3 14 -1 17 5 9 14 2 20 -14 10z"/>
<path d="M960 2993 c0 -19 21 -27 33 -13 9 10 9 11 -2 5 -8 -4 -17 -2 -22 6
-6 9 -9 10 -9 2z"/>
<path d="M1000 2949 c0 -5 5 -7 10 -4 6 3 10 8 10 11 0 2 -4 4 -10 4 -5 0 -10
-5 -10 -11z"/>
<path d="M712 2930 c0 -14 2 -19 5 -12 2 6 2 18 0 25 -3 6 -5 1 -5 -13z"/>
<path d="M1060 2938 c0 -12 7 -18 23 -17 15 0 17 2 7 6 -8 3 -18 11 -22 17 -5
7 -8 4 -8 -6z"/>
<path d="M143 2899 c-23 -28 -26 -69 -8 -89 25 -27 40 -25 21 2 -9 12 -16 27
-16 33 0 5 5 2 11 -7 14 -24 32 -23 24 1 -6 19 -4 19 44 6 27 -7 54 -16 60
-19 6 -4 11 -1 11 7 0 15 -60 36 -112 39 -18 2 -24 6 -18 12 7 7 33 4 76 -7
74 -20 97 -15 40 8 -55 23 -120 30 -133 14z"/>
<path d="M1125 2899 c7 -11 35 -12 35 -1 0 4 -9 8 -20 9 -11 1 -18 -2 -15 -8z"/>
<path d="M790 2890 c0 -5 5 -10 10 -10 6 0 10 5 10 10 0 6 -4 10 -10 10 -5 0
-10 -4 -10 -10z"/>
<path d="M866 2875 c-3 -9 0 -15 9 -15 9 0 12 6 9 15 -4 8 -7 15 -9 15 -2 0
-5 -7 -9 -15z"/>
<path d="M1235 2870 c-3 -5 -1 -10 4 -10 6 0 11 5 11 10 0 6 -2 10 -4 10 -3 0
-8 -4 -11 -10z"/>
<path d="M1308 2853 c7 -3 16 -2 19 1 4 3 -2 6 -13 5 -11 0 -14 -3 -6 -6z"/>
<path d="M3308 2853 c6 -2 18 -2 25 0 6 3 1 5 -13 5 -14 0 -19 -2 -12 -5z"/>
<path d="M940 2841 c0 -5 7 -11 14 -14 10 -4 13 -1 9 9 -6 15 -23 19 -23 5z"/>
<path d="M680 2815 c0 -5 5 -17 10 -25 5 -8 10 -10 10 -5 0 6 -5 17 -10 25 -5
8 -10 11 -10 5z"/>
<path d="M1081 2794 c0 -11 3 -14 6 -6 3 7 2 16 -1 19 -3 4 -6 -2 -5 -13z"/>
<path d="M1155 2770 c-3 -5 -2 -10 4 -10 5 0 13 5 16 10 3 6 2 10 -4 10 -5 0
-13 -4 -16 -10z"/>
<path d="M95 2762 c-24 -17 -33 -57 -19 -85 8 -15 19 -27 24 -27 14 0 13 7 -7
38 l-17 27 22 -19 c25 -22 42 -15 22 9 -12 14 -10 16 16 10 16 -4 42 -11 58
-16 36 -11 46 -11 46 0 0 5 -33 18 -72 29 -42 12 -62 21 -47 21 15 1 46 -6 69
-14 50 -18 60 -18 60 -5 0 10 -92 40 -124 40 -12 0 -26 -4 -31 -8z"/>
<path d="M2420 2759 c0 -5 5 -7 10 -4 6 3 10 8 10 11 0 2 -4 4 -10 4 -5 0 -10
-5 -10 -11z"/>
<path d="M907 2719 c7 -7 15 -10 18 -7 3 3 -2 9 -12 12 -14 6 -15 5 -6 -5z"/>
<path d="M618 2693 c7 -3 16 -2 19 1 4 3 -2 6 -13 5 -11 0 -14 -3 -6 -6z"/>
<path d="M2061 2688 c2 -2 16 -14 32 -27 15 -14 27 -22 27 -18 0 10 -42 47
-54 47 -5 0 -7 -1 -5 -2z"/>
<path d="M680 2676 c0 -2 7 -9 15 -16 13 -11 14 -10 9 4 -5 14 -24 23 -24 12z"/>
<path d="M1082 2668 c-17 -17 -15 -29 3 -22 8 4 21 1 28 -5 10 -8 14 -7 14 4
0 8 -9 15 -21 15 -17 0 -18 2 -6 10 8 5 10 10 5 10 -6 0 -16 -5 -23 -12z"/>
<path d="M2145 2670 c-4 -6 -12 -7 -18 -3 -7 4 -6 0 2 -10 15 -19 36 -24 25
-6 -3 6 0 15 7 20 9 6 10 9 2 9 -6 0 -15 -5 -18 -10z"/>
<path d="M34 2622 c-23 -15 -26 -67 -5 -93 10 -13 23 -21 27 -17 4 5 0 16 -9
26 -24 26 -21 39 3 17 19 -18 20 -17 20 3 0 20 2 20 53 6 63 -17 74 -17 60 -3
-12 12 -113 40 -124 33 -4 -2 -10 0 -14 6 -9 15 46 12 95 -5 50 -18 60 -18 60
-5 0 11 -93 40 -129 40 -14 0 -31 -4 -37 -8z"/>
<path d="M1160 2626 c0 -9 40 -13 46 -5 3 5 -6 9 -20 9 -14 0 -26 -2 -26 -4z"/>
<path d="M3325 2580 c-11 -4 -32 -6 -46 -3 -24 5 -27 1 -62 -109 -47 -145 -47
-161 0 -38 33 87 63 133 71 109 8 -20 49 -9 60 16 18 39 16 41 -23 25z"/>
<path d="M1961 2544 c0 -11 3 -14 6 -6 3 7 2 16 -1 19 -3 4 -6 -2 -5 -13z"/>
<path d="M690 2530 c0 -11 4 -20 9 -20 5 0 7 9 4 20 -3 11 -7 20 -9 20 -2 0
-4 -9 -4 -20z"/>
<path d="M2671 2504 c0 -11 3 -14 6 -6 3 7 2 16 -1 19 -3 4 -6 -2 -5 -13z"/>
<path d="M475 2500 c-3 -5 -1 -10 4 -10 6 0 11 5 11 10 0 6 -2 10 -4 10 -3 0
-8 -4 -11 -10z"/>
<path d="M2020 2490 c8 -5 22 -10 30 -10 13 0 13 1 0 10 -8 5 -22 10 -30 10
-13 0 -13 -1 0 -10z"/>
<path d="M2690 2489 c0 -5 5 -7 10 -4 6 3 10 8 10 11 0 2 -4 4 -10 4 -5 0 -10
-5 -10 -11z"/>
<path d="M0 2482 c0 -4 21 -13 48 -19 26 -7 57 -15 70 -19 13 -4 22 -2 22 4 0
6 -23 18 -52 27 -57 16 -88 19 -88 7z"/>
<path d="M2122 2470 c0 -14 2 -19 5 -12 2 6 2 18 0 25 -3 6 -5 1 -5 -13z"/>
<path d="M2745 2471 c-3 -5 0 -13 6 -17 7 -4 9 -3 5 4 -3 5 0 13 6 15 9 4 10
6 1 6 -6 1 -14 -3 -18 -8z"/>
<path d="M2790 2453 c0 -11 3 -14 8 -7 4 6 14 14 22 17 10 4 8 6 -7 6 -16 1
-23 -5 -23 -16z"/>
<path d="M3264 2458 c-12 -19 -10 -70 3 -75 21 -8 15 -23 -9 -23 -20 -1 -21
-2 -6 -10 20 -12 48 -3 48 16 0 8 5 14 10 14 6 0 10 5 10 10 0 6 -11 10 -25
10 -20 0 -25 5 -25 24 0 25 15 36 38 29 6 -3 12 -11 12 -19 0 -8 5 -14 10 -14
15 0 12 16 -6 34 -18 19 -50 21 -60 4z"/>
<path d="M0 2434 c0 -25 15 -33 22 -12 3 9 16 8 51 -4 26 -8 50 -12 52 -7 8
11 -12 21 -72 35 -53 12 -53 12 -53 -12z"/>
<path d="M550 2439 c0 -5 5 -7 10 -4 6 3 10 8 10 11 0 2 -4 4 -10 4 -5 0 -10
-5 -10 -11z"/>
<path d="M2225 2440 c3 -5 8 -10 11 -10 2 0 4 5 4 10 0 6 -5 10 -11 10 -5 0
-7 -4 -4 -10z"/>
<path d="M2285 2410 c3 -5 10 -10 16 -10 5 0 9 5 9 10 0 6 -7 10 -16 10 -8 0
-12 -4 -9 -10z"/>
<path d="M716 2394 c-9 -24 -7 -27 9 -10 17 17 19 26 6 26 -5 0 -12 -7 -15
-16z"/>
<path d="M1950 2390 c0 -5 -7 -10 -15 -10 -8 0 -15 -4 -15 -8 0 -4 9 -8 20 -8
13 0 20 7 20 18 0 10 -2 18 -5 18 -3 0 -5 -4 -5 -10z"/>
<path d="M810 2360 c0 -5 5 -10 11 -10 5 0 7 5 4 10 -3 6 -8 10 -11 10 -2 0
-4 -4 -4 -10z"/>
<path d="M2491 2354 c0 -11 3 -14 6 -6 3 7 2 16 -1 19 -3 4 -6 -2 -5 -13z"/>
<path d="M0 2332 c0 -11 77 -42 84 -34 12 12 4 19 -33 30 -46 14 -51 15 -51 4z"/>
<path d="M870 2330 c0 -5 5 -10 11 -10 5 0 7 5 4 10 -3 6 -8 10 -11 10 -2 0
-4 -4 -4 -10z"/>
<path d="M460 2326 c0 -2 9 -6 20 -9 11 -3 20 -1 20 4 0 5 -9 9 -20 9 -11 0
-20 -2 -20 -4z"/>
<path d="M900 2320 c0 -6 7 -10 15 -10 8 0 15 2 15 4 0 2 -7 6 -15 10 -8 3
-15 1 -15 -4z"/>
<path d="M2068 2323 c-23 -6 -23 -19 -1 -27 10 -4 14 -4 10 0 -4 4 -2 13 4 21
6 7 10 12 8 12 -2 -1 -12 -3 -21 -6z"/>
<path d="M2538 2323 c7 -3 16 -2 19 1 4 3 -2 6 -13 5 -11 0 -14 -3 -6 -6z"/>
<path d="M3166 2315 c-3 -9 -6 -22 -5 -28 0 -7 5 -1 10 12 5 13 8 26 5 28 -2
2 -6 -3 -10 -12z"/>
<path d="M3240 2320 c0 -5 5 -10 11 -10 5 0 7 5 4 10 -3 6 -8 10 -11 10 -2 0
-4 -4 -4 -10z"/>
<path d="M516 2312 c-3 -5 1 -9 9 -9 8 0 12 4 9 9 -3 4 -7 8 -9 8 -2 0 -6 -4
-9 -8z"/>
<path d="M551 2304 c0 -11 3 -14 6 -6 3 7 2 16 -1 19 -3 4 -6 -2 -5 -13z"/>
<path d="M945 2310 c3 -5 14 -10 23 -10 15 0 15 2 2 10 -20 13 -33 13 -25 0z"/>
<path d="M2150 2310 c8 -5 20 -10 25 -10 6 0 3 5 -5 10 -8 5 -19 10 -25 10 -5
0 -3 -5 5 -10z"/>
<path d="M578 2303 c7 -3 16 -2 19 1 4 3 -2 6 -13 5 -11 0 -14 -3 -6 -6z"/>
<path d="M0 2291 c0 -14 62 -33 73 -22 5 5 -5 13 -24 20 -39 13 -49 14 -49 2z"/>
<path d="M578 2283 c7 -3 16 -2 19 1 4 3 -2 6 -13 5 -11 0 -14 -3 -6 -6z"/>
<path d="M1057 2269 c4 -13 8 -18 11 -10 2 7 -1 18 -6 23 -8 8 -9 4 -5 -13z"/>
<path d="M3219 2278 c0 -2 -2 -21 -4 -43 -3 -30 -2 -36 6 -23 8 14 14 15 35 6
18 -8 28 -8 36 0 12 12 4 42 -11 42 -6 0 -8 -7 -5 -15 4 -10 0 -15 -11 -15 -9
0 -13 5 -10 10 7 12 -12 40 -26 40 -5 0 -9 -1 -10 -2z"/>
<path d="M3142 2233 c-15 -48 -8 -55 8 -8 7 20 10 38 8 41 -3 2 -10 -13 -16
-33z"/>
<path d="M2240 2251 c0 -5 7 -11 14 -14 10 -4 13 -1 9 9 -6 15 -23 19 -23 5z"/>
<path d="M740 2242 c0 -4 9 -13 20 -20 11 -7 20 -9 20 -4 0 4 -9 13 -20 20
-11 7 -20 9 -20 4z"/>
<path d="M820 2216 c0 -8 6 -16 14 -19 10 -4 12 0 9 14 -6 22 -23 26 -23 5z"/>
<path d="M616 2159 c20 -33 32 -65 28 -69 -22 -21 -35 -10 -68 54 -27 54 -37
66 -42 52 -5 -12 4 -39 24 -76 33 -60 37 -104 12 -149 -8 -16 -4 -34 25 -89
19 -38 35 -74 35 -81 0 -6 4 -11 9 -11 11 0 161 -281 161 -301 0 -8 7 -27 15
-43 8 -15 13 -32 10 -36 -3 -4 2 -10 10 -14 8 -3 15 -10 15 -16 0 -6 9 -20 19
-31 l19 -21 17 32 c15 30 15 33 -2 57 -20 29 -17 22 -69 126 -60 121 -53 114
26 -23 40 -69 153 -266 252 -438 99 -172 178 -316 175 -319 -3 -3 14 -29 39
-59 46 -57 76 -108 72 -122 -4 -12 55 -132 65 -132 4 0 -8 30 -28 68 -20 37
-28 57 -18 45 10 -13 29 -44 42 -70 13 -27 32 -66 43 -88 11 -22 28 -47 37
-55 21 -19 25 -74 5 -66 -9 4 -14 -2 -14 -16 0 -17 3 -18 15 -8 8 6 19 9 25 5
14 -9 13 18 -2 33 -6 6 -9 14 -6 17 3 3 16 -11 29 -32 47 -78 134 -208 144
-215 16 -12 19 -10 30 14 11 24 -3 108 -17 108 -5 0 -8 5 -8 11 0 6 7 9 15 5
24 -9 17 10 -9 24 -14 7 -36 37 -50 69 -24 53 -124 246 -206 396 -20 39 -57
106 -80 150 -23 44 -106 193 -185 330 -78 138 -177 313 -220 390 -161 288
-277 480 -313 520 -20 23 -49 62 -64 88 -15 26 -32 47 -37 47 -6 0 6 -27 25
-61z m64 -104 c0 -7 -7 -15 -15 -19 -12 -4 -10 -13 14 -48 15 -24 83 -142 151
-263 176 -315 261 -465 487 -860 109 -192 234 -412 277 -488 42 -75 79 -137
82 -137 6 0 -31 68 -166 310 -51 91 -115 206 -142 255 -28 50 -107 189 -176
310 -198 348 -512 907 -512 911 0 2 6 4 13 4 6 0 20 -15 31 -33 81 -139 499
-875 638 -1122 204 -363 404 -758 387 -764 -12 -4 -30 19 -23 30 2 4 -3 10
-12 13 -9 4 -14 13 -10 22 3 8 2 13 -3 9 -5 -3 -27 25 -48 62 -22 38 -103 176
-180 308 -335 573 -823 1435 -823 1454 0 5 -7 14 -16 22 -14 11 -13 15 7 30
25 18 39 16 39 -6z m-52 -150 c19 -41 14 -53 -8 -20 -22 32 -25 45 -12 45 5 0
14 -11 20 -25z m67 -136 c20 -38 31 -69 25 -69 -5 0 -10 5 -10 12 0 6 -6 19
-14 27 -18 21 -58 113 -45 106 5 -4 25 -38 44 -76z m40 -19 c19 -38 33 -70 31
-70 -6 0 -76 124 -76 133 0 19 13 0 45 -63z m60 -167 c22 -42 46 -83 53 -91
16 -17 11 -25 -12 -16 -9 3 -16 13 -16 21 0 8 -8 27 -19 41 -20 30 -71 127
-71 138 0 19 30 -24 65 -93z m72 -157 l16 -31 -31 30 c-34 33 -41 48 -17 38 9
-3 23 -20 32 -37z"/>
<path d="M910 2186 c0 -2 7 -9 15 -16 9 -7 15 -8 15 -2 0 5 -7 12 -15 16 -8 3
-15 4 -15 2z"/>
<path d="M1932 2170 c0 -14 2 -19 5 -12 2 6 2 18 0 25 -3 6 -5 1 -5 -13z"/>
<path d="M2 2168 c6 -18 28 -21 28 -4 0 9 -7 16 -16 16 -9 0 -14 -5 -12 -12z"/>
<path d="M992 2156 c7 -8 15 -12 17 -11 5 6 -10 25 -20 25 -5 0 -4 -6 3 -14z"/>
<path d="M1961 2154 c0 -11 3 -14 6 -6 3 7 2 16 -1 19 -3 4 -6 -2 -5 -13z"/>
<path d="M2348 2153 c7 -3 16 -2 19 1 4 3 -2 6 -13 5 -11 0 -14 -3 -6 -6z"/>
<path d="M660 2140 c0 -5 5 -10 10 -10 6 0 10 5 10 10 0 6 -4 10 -10 10 -5 0
-10 -4 -10 -10z"/>
<path d="M1027 2144 c-8 -8 1 -24 12 -24 4 0 8 7 8 15 0 16 -9 20 -20 9z"/>
<path d="M1073 2138 c3 -9 1 -19 -6 -22 -7 -2 -4 -5 6 -5 20 -1 21 7 6 29 -9
13 -10 13 -6 -2z"/>
<path d="M3110 2132 c0 -10 -29 -107 -65 -216 -35 -110 -62 -203 -59 -207 2
-5 11 -6 19 -2 9 3 15 -1 15 -10 0 -10 12 -18 33 -21 116 -19 131 -1 27 33
-43 13 -70 28 -70 36 0 8 7 36 15 62 28 88 100 308 102 311 1 2 33 -4 72 -14
56 -14 73 -16 83 -6 9 9 6 12 -17 12 -17 0 -58 9 -92 19 -58 18 -63 18 -63 3z"/>
<path d="M0 2130 c0 -5 5 -10 10 -10 6 0 10 5 10 10 0 6 -4 10 -10 10 -5 0
-10 -4 -10 -10z"/>
<path d="M2080 2125 c0 -8 4 -15 10 -15 5 0 7 7 4 15 -4 8 -8 15 -10 15 -2 0
-4 -7 -4 -15z"/>
<path d="M685 2120 c-13 -6 -15 -9 -5 -9 8 0 22 4 30 9 18 12 2 12 -25 0z"/>
<path d="M1498 2123 c6 -2 18 -2 25 0 6 3 1 5 -13 5 -14 0 -19 -2 -12 -5z"/>
<path d="M730 2099 c0 -5 5 -7 10 -4 6 3 17 -1 26 -9 8 -9 20 -16 25 -16 5 0
0 9 -11 20 -21 21 -50 27 -50 9z"/>
<path d="M2140 2102 c0 -5 7 -9 15 -9 8 0 12 4 9 9 -3 4 -9 8 -15 8 -5 0 -9
-4 -9 -8z"/>
<path d="M511 2044 c0 -11 3 -14 6 -6 3 7 2 16 -1 19 -3 4 -6 -2 -5 -13z"/>
<path d="M3153 2013 c1 -21 6 -44 10 -50 5 -8 3 -13 -5 -13 -7 0 -18 -11 -25
-25 -9 -20 -8 -25 3 -25 8 0 14 7 14 15 0 8 9 15 20 15 13 0 20 7 20 19 0 15
5 18 23 14 18 -4 19 -3 7 6 -8 6 -23 11 -32 11 -12 0 -18 8 -18 25 0 14 6 25
13 25 19 0 36 -20 30 -36 -7 -18 5 -18 23 0 12 13 10 17 -12 35 -15 12 -37 21
-50 21 -21 0 -23 -4 -21 -37z"/>
<path d="M315 1999 c-4 -6 -5 -12 -2 -15 2 -3 7 2 10 11 7 17 1 20 -8 4z"/>
<path d="M1441 1983 c-1 -6 -4 -20 -7 -30 -5 -17 -5 -17 6 0 6 10 9 23 6 30
-3 9 -5 9 -5 0z"/>
<path d="M1878 1983 c7 -3 16 -2 19 1 4 3 -2 6 -13 5 -11 0 -14 -3 -6 -6z"/>
<path d="M1955 1971 c-6 -11 13 -26 22 -17 4 3 1 6 -6 6 -7 0 -9 5 -6 10 3 6
4 10 1 10 -3 0 -7 -4 -11 -9z"/>
<path d="M380 1951 c0 -6 4 -12 8 -15 5 -3 9 1 9 9 0 8 -4 15 -9 15 -4 0 -8
-4 -8 -9z"/>
<path d="M1500 1956 c0 -2 7 -7 16 -10 8 -3 12 -2 9 4 -6 10 -25 14 -25 6z"/>
<path d="M808 1943 c6 -2 18 -2 25 0 6 3 1 5 -13 5 -14 0 -19 -2 -12 -5z"/>
<path d="M1611 1943 c-1 -6 -4 -20 -7 -30 -5 -17 -5 -17 6 0 6 10 9 23 6 30
-3 9 -5 9 -5 0z"/>
<path d="M425 1930 c-3 -5 -1 -10 4 -10 6 0 11 5 11 10 0 6 -2 10 -4 10 -3 0
-8 -4 -11 -10z"/>
<path d="M480 1920 c0 -11 4 -20 9 -20 17 0 19 15 5 28 -12 11 -14 9 -14 -8z"/>
<path d="M845 1921 c8 -14 44 -20 39 -7 -2 6 -14 12 -24 13 -11 1 -18 -2 -15
-6z"/>
<path d="M901 1904 c0 -11 3 -14 6 -6 3 7 2 16 -1 19 -3 4 -6 -2 -5 -13z"/>
<path d="M2150 1902 c0 -5 7 -13 16 -16 10 -4 14 -1 12 6 -5 15 -28 23 -28 10z"/>
<path d="M571 1884 c0 -11 3 -14 6 -6 3 7 2 16 -1 19 -3 4 -6 -2 -5 -13z"/>
<path d="M2287 1883 c-4 -3 -7 -11 -7 -17 0 -6 5 -5 12 2 6 6 9 14 7 17 -3 3
-9 2 -12 -2z"/>
<path d="M3110 1851 c0 -29 22 -47 41 -35 6 3 16 1 24 -6 9 -7 15 -8 20 -1 10
17 -10 44 -33 46 -12 1 -19 -2 -16 -6 2 -4 0 -10 -6 -14 -6 -4 -10 5 -10 19 0
14 -4 26 -10 26 -5 0 -10 -13 -10 -29z"/>
<path d="M2315 1859 c-4 -6 -5 -12 -2 -15 2 -3 7 2 10 11 7 17 1 20 -8 4z"/>
<path d="M2361 1844 c0 -11 3 -14 6 -6 3 7 2 16 -1 19 -3 4 -6 -2 -5 -13z"/>
<path d="M357 1833 c-4 -3 -7 -11 -7 -17 0 -6 5 -5 12 2 6 6 9 14 7 17 -3 3
-9 2 -12 -2z"/>
<path d="M2425 1820 c-3 -5 -2 -10 4 -10 5 0 13 5 16 10 3 6 2 10 -4 10 -5 0
-13 -4 -16 -10z"/>
<path d="M1969 1804 c-7 -24 6 -54 24 -54 9 0 9 2 0 8 -6 4 -13 21 -15 37 -3
26 -4 27 -9 9z"/>
<path d="M2491 1804 c0 -11 3 -14 6 -6 3 7 2 16 -1 19 -3 4 -6 -2 -5 -13z"/>
<path d="M500 1770 c8 -5 22 -9 30 -9 10 0 8 3 -5 9 -27 12 -43 12 -25 0z"/>
<path d="M2010 1770 c8 -5 22 -9 30 -9 10 0 8 3 -5 9 -27 12 -43 12 -25 0z"/>
<path d="M216 1737 c-16 -12 -16 -13 2 -13 10 0 19 6 19 13 0 7 -1 13 -2 13
-1 0 -9 -6 -19 -13z"/>
<path d="M610 1736 c0 -8 4 -17 9 -21 6 -3 9 4 8 15 -1 23 -17 28 -17 6z"/>
<path d="M2065 1740 c-7 -12 2 -12 30 0 19 8 19 9 -2 9 -12 1 -25 -3 -28 -9z"/>
<path d="M250 1709 c0 -6 6 -9 14 -6 8 3 16 1 18 -5 3 -7 10 -8 18 -3 11 7 10
10 -6 16 -28 11 -44 10 -44 -2z"/>
<path d="M2140 1710 c0 -5 5 -10 11 -10 5 0 7 5 4 10 -3 6 -8 10 -11 10 -2 0
-4 -4 -4 -10z"/>
<path d="M2175 1710 c3 -5 8 -10 11 -10 2 0 4 5 4 10 0 6 -5 10 -11 10 -5 0
-7 -4 -4 -10z"/>
<path d="M2211 1694 c0 -11 3 -14 6 -6 3 7 2 16 -1 19 -3 4 -6 -2 -5 -13z"/>
<path d="M342 1691 c4 -13 18 -16 19 -4 0 4 -5 9 -11 12 -7 2 -11 -2 -8 -8z"/>
<path d="M1768 1667 c-3 -19 -2 -25 4 -19 6 6 8 18 6 28 -3 14 -5 12 -10 -9z"/>
<path d="M2280 1670 c0 -5 5 -10 10 -10 6 0 10 5 10 10 0 6 -4 10 -10 10 -5 0
-10 -4 -10 -10z"/>
<path d="M2327 1663 c-4 -3 -7 -11 -7 -17 0 -6 5 -5 12 2 6 6 9 14 7 17 -3 3
-9 2 -12 -2z"/>
<path d="M135 1650 c-3 -5 -1 -10 4 -10 6 0 11 5 11 10 0 6 -2 10 -4 10 -3 0
-8 -4 -11 -10z"/>
<path d="M2390 1645 c0 -8 2 -15 4 -15 2 0 6 7 10 15 3 8 1 15 -4 15 -6 0 -10
-7 -10 -15z"/>
<path d="M473 1636 c5 -16 24 -18 30 -2 4 10 0 14 -14 13 -10 -1 -18 -6 -16
-11z"/>
<path d="M172 1610 c0 -14 2 -19 5 -12 2 6 2 18 0 25 -3 6 -5 1 -5 -13z"/>
<path d="M560 1615 c-11 -13 -10 -14 4 -9 9 3 16 2 16 -4 0 -11 60 -35 68 -28
2 3 -8 8 -23 12 -20 5 -23 9 -13 15 9 6 7 9 -10 9 -13 0 -20 4 -17 10 10 16
-11 12 -25 -5z"/>
<path d="M1885 1620 c-3 -5 1 -10 9 -10 9 0 16 5 16 10 0 6 -4 10 -9 10 -6 0
-13 -4 -16 -10z"/>
<path d="M196 1595 c4 -8 7 -15 9 -15 2 0 5 7 9 15 3 9 0 15 -9 15 -9 0 -12
-6 -9 -15z"/>
<path d="M1930 1595 c0 -8 2 -15 4 -15 2 0 6 7 10 15 3 8 1 15 -4 15 -6 0 -10
-7 -10 -15z"/>
<path d="M3105 1600 c3 -5 1 -10 -6 -10 -9 0 -9 -3 0 -14 10 -12 7 -15 -16
-19 -23 -3 -20 -4 11 -6 33 -1 37 1 26 14 -11 13 -10 18 6 30 18 14 18 14 -4
15 -13 0 -20 -4 -17 -10z"/>
<path d="M1470 1580 c-8 -5 -12 -11 -9 -14 2 -3 11 -1 19 4 8 5 12 11 9 14 -2
3 -11 1 -19 -4z"/>
<path d="M699 1571 c7 -5 11 -13 7 -19 -6 -10 42 -27 52 -17 3 3 -1 5 -9 5
-11 0 -11 2 1 10 12 8 11 10 -7 10 -13 0 -23 5 -23 10 0 6 -8 10 -17 10 -14 0
-15 -2 -4 -9z"/>
<path d="M2015 1560 c-3 -5 -1 -10 4 -10 6 0 11 5 11 10 0 6 -2 10 -4 10 -3 0
-8 -4 -11 -10z"/>
<path d="M314 1548 c-5 -7 -3 -8 6 -3 7 4 16 2 21 -6 7 -11 9 -10 9 4 0 19
-25 23 -36 5z"/>
<path d="M371 1544 c0 -11 3 -14 6 -6 3 7 2 16 -1 19 -3 4 -6 -2 -5 -13z"/>
<path d="M2078 1533 c7 -3 16 -2 19 1 4 3 -2 6 -13 5 -11 0 -14 -3 -6 -6z"/>
<path d="M531 1484 c0 -11 3 -14 6 -6 3 7 2 16 -1 19 -3 4 -6 -2 -5 -13z"/>
<path d="M3060 1484 l-25 -14 32 0 c25 0 31 4 27 15 -4 8 -7 15 -8 14 0 -1
-12 -7 -26 -15z"/>
<path d="M150 1480 c0 -12 30 -34 37 -26 3 3 0 6 -8 6 -11 0 -12 2 -1 9 10 6
9 10 -7 14 -12 3 -21 2 -21 -3z"/>
<path d="M550 1470 c0 -5 7 -10 16 -10 8 0 12 5 9 10 -3 6 -10 10 -16 10 -5 0
-9 -4 -9 -10z"/>
<path d="M1216 1464 c-4 -9 -4 -19 -1 -22 2 -3 7 3 11 12 4 9 4 19 1 22 -2 3
-7 -3 -11 -12z"/>
<path d="M1740 1455 c-7 -9 -8 -15 -2 -15 5 0 12 7 16 15 3 8 4 15 2 15 -2 0
-9 -7 -16 -15z"/>
<path d="M641 1434 c30 -17 36 -17 36 -1 0 6 -14 13 -30 13 l-30 1 24 -13z"/>
<path d="M1320 1440 c0 -5 5 -10 11 -10 5 0 7 5 4 10 -3 6 -8 10 -11 10 -2 0
-4 -4 -4 -10z"/>
<path d="M697 1433 c-12 -12 -7 -21 16 -26 20 -6 21 -5 4 7 -14 11 -15 15 -5
19 7 3 8 6 2 6 -6 1 -14 -2 -17 -6z"/>
<path d="M352 1406 c7 -7 19 -11 26 -8 11 4 11 6 0 13 -7 5 -19 9 -26 9 -10 0
-10 -3 0 -14z"/>
<path d="M740 1409 c0 -5 5 -7 10 -4 6 3 10 8 10 11 0 2 -4 4 -10 4 -5 0 -10
-5 -10 -11z"/>
<path d="M1340 1410 c-13 -8 -12 -10 3 -10 9 0 17 5 17 10 0 12 -1 12 -20 0z"/>
<path d="M1910 1415 c0 -15 21 -35 37 -35 7 0 13 8 13 18 0 14 -2 15 -10 2 -8
-13 -11 -12 -24 5 -9 11 -16 15 -16 10z"/>
<path d="M779 1398 c-11 -8 -10 -9 4 -4 9 3 17 1 17 -4 0 -5 9 -14 20 -20 27
-15 25 1 -4 22 -16 12 -27 13 -37 6z"/>
<path d="M3064 1397 c-8 -9 -7 -16 3 -25 11 -11 13 -8 13 13 0 28 -1 29 -16
12z"/>
<path d="M1970 1389 c0 -5 5 -7 10 -4 6 3 10 8 10 11 0 2 -4 4 -10 4 -5 0 -10
-5 -10 -11z"/>
<path d="M2001 1384 c0 -11 3 -14 6 -6 3 7 2 16 -1 19 -3 4 -6 -2 -5 -13z"/>
<path d="M448 1373 c12 -2 22 -8 22 -13 0 -4 9 -10 20 -13 24 -6 25 -3 4 17
-8 9 -27 15 -42 15 -24 -2 -24 -2 -4 -6z"/>
<path d="M3017 1364 c-12 -12 -8 -44 6 -44 9 0 8 -3 -2 -9 -11 -7 -11 -9 0
-14 9 -4 8 -6 -5 -6 -15 -1 -16 -4 -6 -16 10 -13 9 -15 -11 -16 -19 -1 -20 -2
-5 -6 10 -3 22 -1 26 4 13 13 20 62 9 68 -16 10 -10 25 7 18 11 -4 15 -2 12 7
-5 16 -21 23 -31 14z"/>
<path d="M2085 1350 c-3 -6 1 -7 9 -4 18 7 21 14 7 14 -6 0 -13 -4 -16 -10z"/>
<path d="M520 1340 c0 -5 5 -10 10 -10 6 0 10 5 10 10 0 6 -4 10 -10 10 -5 0
-10 -4 -10 -10z"/>
<path d="M565 1330 c-3 -5 -1 -10 4 -10 6 0 11 5 11 10 0 6 -2 10 -4 10 -3 0
-8 -4 -11 -10z"/>
<path d="M591 1324 c0 -11 3 -14 6 -6 3 7 2 16 -1 19 -3 4 -6 -2 -5 -13z"/>
<path d="M1571 1324 c0 -11 3 -14 6 -6 3 7 2 16 -1 19 -3 4 -6 -2 -5 -13z"/>
<path d="M612 1318 c5 -15 28 -23 28 -10 0 5 -7 13 -16 16 -10 4 -14 1 -12 -6z"/>
<path d="M654 1298 c-5 -7 -2 -9 9 -5 9 3 18 1 21 -6 2 -7 5 -4 5 6 1 19 -24
23 -35 5z"/>
<path d="M710 1290 c0 -11 4 -20 9 -20 5 0 7 9 4 20 -3 11 -7 20 -9 20 -2 0
-4 -9 -4 -20z"/>
<path d="M1690 1285 c0 -8 2 -15 4 -15 2 0 6 7 10 15 3 8 1 15 -4 15 -6 0 -10
-7 -10 -15z"/>
<path d="M1780 1259 c0 -9 7 -20 16 -23 8 -3 12 -2 9 3 -3 6 3 14 12 20 10 6
13 11 6 11 -6 0 -15 -5 -19 -11 -4 -8 -9 -7 -15 2 -7 11 -9 11 -9 -2z"/>
<path d="M1751 1238 c0 -14 -7 -29 -13 -31 -10 -4 -10 -6 0 -6 16 -1 25 22 19
46 -3 12 -5 9 -6 -9z"/>
<path d="M1848 1253 c7 -3 16 -2 19 1 4 3 -2 6 -13 5 -11 0 -14 -3 -6 -6z"/>
<path d="M2876 1252 c-2 -4 -25 -74 -50 -157 -26 -82 -69 -215 -96 -295 -26
-80 -78 -239 -115 -355 -36 -116 -84 -263 -105 -327 l-39 -118 38 0 37 0 38
120 c30 93 41 118 51 110 9 -8 18 2 34 40 21 48 23 50 61 50 49 0 71 20 89 80
7 25 22 69 32 98 10 30 19 62 19 73 0 10 5 19 10 19 6 0 10 15 10 33 1 17 7
43 15 57 8 14 14 34 14 45 0 20 0 20 -14 1 -8 -11 -15 -28 -15 -37 0 -10 -7
-25 -16 -33 -8 -9 -16 -25 -17 -36 -1 -11 -7 -20 -15 -20 -7 0 -10 4 -7 10 3
5 -1 10 -10 10 -9 0 -13 -5 -10 -10 3 -5 0 -10 -8 -10 -8 0 -17 -6 -20 -13 -6
-16 44 -19 55 -3 4 6 8 -1 8 -16 0 -16 -5 -28 -11 -28 -7 0 -9 -10 -7 -25 4
-17 -2 -33 -18 -51 -22 -23 -24 -23 -24 -5 0 11 8 24 17 30 24 13 6 66 -22 66
-11 0 -19 -6 -17 -12 1 -7 -5 -13 -13 -13 -19 0 -19 5 1 24 11 12 12 16 2 16
-7 0 -2 7 10 16 12 8 20 19 17 24 -3 4 2 11 11 14 9 4 14 13 10 21 -7 18 5 20
22 3 6 -6 14 -9 18 -6 9 9 -35 50 -46 43 -6 -4 -10 3 -10 14 0 27 16 27 30 1
6 -11 15 -18 20 -15 5 3 13 -2 18 -11 8 -15 10 -14 16 2 4 10 4 15 0 12 -3 -4
-18 7 -31 23 -14 16 -22 33 -19 37 4 3 10 2 14 -3 18 -25 86 3 75 31 -3 8 -17
14 -32 14 -48 1 -126 26 -124 41 3 31 117 375 128 387 9 10 21 10 56 2 87 -22
95 -23 83 -11 -13 14 -142 52 -148 43z m-76 -502 c12 -8 9 -10 -13 -10 -26 0
-28 -2 -24 -38 1 -20 6 -43 11 -50 4 -7 1 -12 -8 -12 -19 0 -21 -16 -3 -23 8
-4 6 -6 -4 -6 -9 -1 -21 -18 -29 -42 -12 -36 -12 -43 2 -53 15 -11 34 -56 24
-56 -3 0 -12 14 -21 30 -17 34 -31 39 -33 13 -1 -29 19 -62 34 -56 10 4 12 0
8 -11 -4 -11 -1 -16 10 -16 9 0 16 -5 16 -10 0 -7 -15 -9 -40 -5 -23 3 -47 1
-58 -5 -16 -11 -16 -11 1 -6 21 7 49 -3 42 -15 -3 -4 15 -2 40 5 38 12 45 12
45 0 0 -8 -6 -14 -14 -14 -8 0 -16 -5 -18 -12 -3 -9 -21 -7 -70 6 -49 13 -65
22 -61 32 3 8 10 14 17 14 6 0 12 15 13 32 2 18 7 34 11 36 5 1 7 14 4 27 -3
16 0 25 8 25 7 0 10 7 6 15 -5 15 21 84 37 96 4 3 5 13 2 21 -4 9 -1 19 4 23
6 3 9 10 6 15 -7 12 16 60 29 60 6 0 18 -5 26 -10z m-17 -245 c-3 -9 -8 -14
-10 -11 -3 3 -2 9 2 15 9 16 15 13 8 -4z"/>
<path d="M2690 440 c0 -6 -6 -8 -12 -4 -10 5 -10 4 -2 -5 7 -7 19 -11 27 -9
13 3 13 5 1 16 -9 8 -14 9 -14 2z"/>
<path d="M2460 1230 c0 -11 2 -20 4 -20 2 0 6 9 9 20 3 11 1 20 -4 20 -5 0 -9
-9 -9 -20z"/>
<path d="M2538 1243 c7 -3 16 -2 19 1 4 3 -2 6 -13 5 -11 0 -14 -3 -6 -6z"/>
<path d="M2491 1237 c2 -1 13 -9 24 -17 19 -14 19 -14 6 3 -7 9 -18 17 -24 17
-6 0 -8 -1 -6 -3z"/>
<path d="M1945 1220 c-3 -5 -1 -10 4 -10 6 0 11 5 11 10 0 6 -2 10 -4 10 -3 0
-8 -4 -11 -10z"/>
<path d="M1971 1194 c0 -11 3 -14 6 -6 3 7 2 16 -1 19 -3 4 -6 -2 -5 -13z"/>
<path d="M2914 1175 c-3 -8 -4 -20 -1 -27 4 -8 6 -6 6 5 1 21 29 23 37 2 4 -8
10 -12 16 -9 12 8 -20 44 -39 44 -7 0 -16 -7 -19 -15z"/>
<path d="M1520 1170 c0 -5 5 -10 11 -10 5 0 7 5 4 10 -3 6 -8 10 -11 10 -2 0
-4 -4 -4 -10z"/>
<path d="M1591 1124 c0 -11 3 -14 6 -6 3 7 2 16 -1 19 -3 4 -6 -2 -5 -13z"/>
<path d="M2910 1121 c0 -6 6 -13 12 -17 9 -6 5 -10 -12 -15 -23 -7 -23 -7 6
-8 23 -1 33 4 37 18 3 12 -1 22 -10 25 -21 9 -33 7 -33 -3z"/>
<path d="M161 1104 c0 -11 3 -14 6 -6 3 7 2 16 -1 19 -3 4 -6 -2 -5 -13z"/>
<path d="M2281 1104 c0 -11 3 -14 6 -6 3 7 2 16 -1 19 -3 4 -6 -2 -5 -13z"/>
<path d="M1705 1090 c-3 -6 1 -7 9 -4 18 7 21 14 7 14 -6 0 -13 -4 -16 -10z"/>
<path d="M2330 1089 c0 -5 5 -7 10 -4 6 3 10 8 10 11 0 2 -4 4 -10 4 -5 0 -10
-5 -10 -11z"/>
<path d="M2360 1089 c0 -5 5 -7 10 -4 6 3 10 8 10 11 0 2 -4 4 -10 4 -5 0 -10
-5 -10 -11z"/>
<path d="M1790 1086 c0 -2 6 -9 13 -15 10 -8 14 -7 14 4 0 8 -6 15 -14 15 -7
0 -13 -2 -13 -4z"/>
<path d="M2395 1070 c-3 -5 1 -10 9 -10 9 0 16 5 16 10 0 6 -4 10 -9 10 -6 0
-13 -4 -16 -10z"/>
<path d="M200 1053 c0 -10 4 -14 8 -8 4 6 11 13 16 18 5 4 2 7 -7 7 -10 0 -17
-8 -17 -17z"/>
<path d="M1797 1049 c7 -7 15 -10 18 -7 3 3 -2 9 -12 12 -14 6 -15 5 -6 -5z"/>
<path d="M273 1006 c15 -7 24 -15 21 -19 -4 -4 0 -7 9 -7 28 0 19 17 -14 29
-42 14 -51 13 -16 -3z"/>
<path d="M2887 1000 c-3 -13 -10 -18 -21 -14 -9 3 -16 2 -16 -4 0 -10 32 -22
60 -22 11 0 11 3 2 12 -17 17 -15 29 3 22 22 -9 19 3 -4 15 -15 9 -20 7 -24
-9z"/>
<path d="M420 949 c0 -6 25 -19 36 -19 2 0 4 6 4 13 0 7 -9 13 -20 13 -11 0
-20 -3 -20 -7z"/>
<path d="M490 923 c0 -8 4 -12 9 -8 5 3 12 1 16 -5 3 -5 15 -10 26 -10 10 0
19 -5 19 -12 0 -6 3 -9 6 -5 3 3 17 2 30 -3 17 -7 24 -6 24 3 0 8 2 9 8 1 4
-7 15 -8 27 -3 18 7 18 8 -5 9 -14 1 -33 1 -44 0 -12 -1 -16 3 -11 10 5 8 2
10 -12 6 -10 -3 -35 3 -56 13 -30 15 -37 16 -37 4z"/>
<path d="M150 910 c-7 -14 -7 -20 0 -20 5 0 10 6 10 14 0 8 6 17 13 19 9 4 9
6 0 6 -7 1 -17 -8 -23 -19z"/>
<path d="M185 893 c-15 -12 -16 -14 -3 -10 9 3 18 1 21 -6 2 -7 6 -7 10 -1 12
21 -7 33 -28 17z"/>
<path d="M244 881 c4 -5 0 -12 -6 -14 -8 -3 -6 -6 5 -6 9 -1 17 6 17 14 0 8
-5 15 -11 15 -5 0 -8 -4 -5 -9z"/>
<path d="M530 877 c0 -2 6 -10 14 -16 11 -9 16 -9 22 1 4 7 4 10 -1 6 -4 -4
-14 -3 -22 3 -7 6 -13 9 -13 6z"/>
<path d="M670 870 c-8 -6 -10 -10 -5 -10 6 0 20 -3 33 -6 13 -4 22 -2 22 5 0
7 -5 9 -11 5 -6 -3 -14 -2 -18 4 -4 7 -12 8 -21 2z"/>
<path d="M300 850 c0 -11 6 -20 13 -20 8 0 14 7 14 15 0 8 -6 16 -14 19 -8 3
-13 -2 -13 -14z"/>
<path d="M760 846 c0 -8 4 -17 9 -20 5 -4 7 3 4 14 -6 23 -13 26 -13 6z"/>
<path d="M346 829 c3 -5 12 -9 21 -9 19 0 9 13 -12 16 -8 1 -13 -2 -9 -7z"/>
<path d="M390 816 c0 -8 13 -16 29 -18 21 -3 28 -1 24 9 -3 8 -12 12 -19 9 -8
-3 -14 -1 -14 4 0 6 -4 10 -10 10 -5 0 -10 -6 -10 -14z"/>
<path d="M850 825 c0 -5 5 -17 10 -25 5 -8 10 -10 10 -5 0 6 -5 17 -10 25 -5
8 -10 11 -10 5z"/>
<path d="M471 794 c0 -11 3 -14 6 -6 3 7 2 16 -1 19 -3 4 -6 -2 -5 -13z"/>
<path d="M910 781 c8 -6 18 -7 22 -5 4 3 8 1 8 -4 0 -4 23 -15 50 -24 28 -9
50 -12 50 -7 0 5 -7 9 -15 9 -8 0 -25 5 -38 12 -47 24 -57 28 -74 28 -15 0
-15 -2 -3 -9z"/>
<path d="M130 764 c0 -8 5 -12 10 -9 6 4 8 11 5 16 -9 14 -15 11 -15 -7z"/>
<path d="M550 766 c0 -9 5 -16 10 -16 6 0 10 4 10 9 0 6 -4 13 -10 16 -5 3
-10 -1 -10 -9z"/>
<path d="M1051 743 c-1 -16 5 -23 17 -23 10 0 13 3 6 8 -6 4 -14 14 -17 22 -4
10 -6 8 -6 -7z"/>
<path d="M210 733 c12 -25 15 -26 45 -12 18 8 17 9 -4 5 -16 -3 -30 1 -38 12
-13 15 -13 14 -3 -5z"/>
<path d="M660 726 c0 -13 20 -26 41 -26 5 0 9 7 9 15 0 8 -5 15 -11 15 -5 0
-7 -4 -4 -10 3 -6 -1 -7 -9 -4 -9 3 -13 10 -10 15 3 5 0 9 -5 9 -6 0 -11 -6
-11 -14z"/>
<path d="M730 710 c0 -11 4 -20 9 -20 5 0 7 9 4 20 -3 11 -7 20 -9 20 -2 0 -4
-9 -4 -20z"/>
<path d="M258 703 c6 -2 18 -2 25 0 6 3 1 5 -13 5 -14 0 -19 -2 -12 -5z"/>
<path d="M305 700 c-3 -6 1 -7 9 -4 18 7 21 14 7 14 -6 0 -13 -4 -16 -10z"/>
<path d="M770 693 c0 -11 7 -20 15 -20 8 0 15 4 15 7 0 4 -7 13 -15 20 -12 10
-15 9 -15 -7z"/>
<path d="M1140 700 c0 -10 67 -29 88 -25 9 2 22 4 27 5 6 1 1 5 -10 9 -12 5
-23 4 -27 -3 -6 -8 -10 -7 -17 2 -8 14 -61 24 -61 12z"/>
<path d="M340 686 c0 -8 7 -16 15 -20 8 -3 15 -1 15 4 0 6 -6 10 -12 10 -9 0
-8 4 2 10 13 8 12 10 -2 10 -10 0 -18 -6 -18 -14z"/>
<path d="M415 670 c3 -5 8 -10 11 -10 2 0 4 5 4 10 0 6 -5 10 -11 10 -5 0 -7
-4 -4 -10z"/>
<path d="M850 665 c0 -3 7 -14 16 -23 15 -14 16 -14 13 3 -4 17 -29 35 -29 20z"/>
<path d="M1280 655 c0 -8 6 -15 13 -15 6 0 22 -3 35 -6 24 -7 28 2 12 26 -9
13 -11 13 -20 0 -6 -10 -10 -11 -10 -2 0 6 -7 12 -15 12 -8 0 -15 -7 -15 -15z"/>
<path d="M56 641 c10 -10 21 -14 23 -8 4 10 -17 27 -33 27 -5 0 -1 -8 10 -19z"/>
<path d="M454 645 c8 -8 19 -15 25 -15 17 0 13 17 -5 24 -27 10 -36 7 -20 -9z"/>
<path d="M930 650 c0 -6 7 -18 15 -26 9 -10 15 -11 15 -4 0 6 -7 18 -15 26 -9
10 -15 11 -15 4z"/>
<path d="M550 621 c0 -10 19 -25 25 -20 1 2 -3 10 -11 17 -8 7 -14 8 -14 3z"/>
<path d="M970 621 c0 -10 30 -24 37 -17 3 2 -5 9 -16 16 -12 6 -21 7 -21 1z"/>
<path d="M130 610 c0 -5 5 -10 11 -10 5 0 7 5 4 10 -3 6 -8 10 -11 10 -2 0 -4
-4 -4 -10z"/>
<path d="M605 600 c3 -5 8 -10 11 -10 2 0 4 5 4 10 0 6 -5 10 -11 10 -5 0 -7
-4 -4 -10z"/>
<path d="M1020 598 c0 -4 4 -8 9 -8 6 0 12 4 15 8 3 5 -1 9 -9 9 -8 0 -15 -4
-15 -9z"/>
<path d="M200 590 c0 -5 5 -10 11 -10 5 0 7 5 4 10 -3 6 -8 10 -11 10 -2 0 -4
-4 -4 -10z"/>
<path d="M655 580 c-3 -5 -1 -10 4 -10 6 0 11 5 11 10 0 6 -2 10 -4 10 -3 0
-8 -4 -11 -10z"/>
<path d="M1090 580 c0 -5 5 -10 11 -10 5 0 7 5 4 10 -3 6 -8 10 -11 10 -2 0
-4 -4 -4 -10z"/>
<path d="M276 571 c-4 -7 -5 -15 -2 -18 9 -9 19 4 14 18 -4 11 -6 11 -12 0z"/>
<path d="M700 565 c0 -8 2 -15 4 -15 2 0 6 7 10 15 3 8 1 15 -4 15 -6 0 -10
-7 -10 -15z"/>
<path d="M731 554 c0 -11 3 -14 6 -6 3 7 2 16 -1 19 -3 4 -6 -2 -5 -13z"/>
<path d="M757 563 c-10 -9 -9 -33 1 -33 4 0 8 9 9 20 2 21 0 24 -10 13z"/>
<path d="M1140 560 c0 -5 3 -9 8 -8 4 0 15 -2 24 -6 10 -4 23 -6 30 -3 7 3 3
6 -9 6 -13 1 -23 6 -23 11 0 6 -7 10 -15 10 -8 0 -15 -4 -15 -10z"/>
<path d="M1570 560 c0 -4 9 -10 20 -13 11 -3 20 -2 20 3 0 4 -9 10 -20 13 -11
3 -20 2 -20 -3z"/>
<path d="M300 550 c0 -5 5 -10 11 -10 5 0 7 5 4 10 -3 6 -8 10 -11 10 -2 0 -4
-4 -4 -10z"/>
<path d="M335 550 c-8 -13 3 -30 18 -29 8 0 8 2 -1 6 -10 4 -10 8 -1 19 8 9 8
14 1 14 -6 0 -14 -4 -17 -10z"/>
<path d="M1640 541 c0 -12 39 -25 47 -17 4 3 -2 6 -13 7 -18 0 -18 1 1 9 18 8
17 9 -7 9 -16 1 -28 -3 -28 -8z"/>
<path d="M400 517 c0 -10 8 -17 18 -17 9 0 13 4 7 8 -5 4 -13 11 -17 16 -5 5
-8 2 -8 -7z"/>
<path d="M864 515 c8 -8 17 -15 20 -15 3 0 3 7 0 15 -4 8 -13 15 -21 15 -12 0
-12 -2 1 -15z"/>
<path d="M1270 523 c0 -16 13 -23 75 -38 46 -10 55 -10 59 2 5 11 0 13 -23 8
-21 -4 -30 -2 -34 9 -4 9 -11 16 -17 16 -6 0 -8 -4 -5 -10 3 -5 1 -10 -4 -10
-6 0 -11 5 -11 11 0 5 -5 7 -11 3 -6 -3 -15 0 -20 7 -6 9 -9 10 -9 2z"/>
<path d="M1740 520 c12 -8 12 -10 -5 -11 -16 -1 -16 -2 5 -8 32 -10 62 9 33
20 -10 4 -25 8 -33 8 -13 1 -13 0 0 -9z"/>
<path d="M480 496 c0 -13 5 -17 20 -13 10 3 21 1 24 -4 2 -5 3 -4 2 3 -2 7 -9
12 -16 10 -7 -2 -17 3 -21 10 -6 10 -9 8 -9 -6z"/>
<path d="M904 498 c1 -7 12 -14 24 -14 12 -1 19 3 16 8 -3 5 -12 7 -19 4 -8
-3 -16 -1 -19 5 -2 5 -3 4 -2 -3z"/>
<path d="M1800 493 c0 -15 2 -16 10 -3 8 13 10 12 10 -2 0 -20 35 -25 46 -7 4
8 -1 9 -16 4 -14 -4 -20 -3 -16 3 3 5 -1 13 -10 16 -23 9 -24 8 -24 -11z"/>
<path d="M1900 468 c0 -4 -7 -5 -15 -2 -11 5 -13 2 -9 -10 5 -12 10 -13 25 -5
14 7 19 6 19 -3 0 -9 3 -9 10 2 14 22 12 26 -10 26 -11 0 -20 -4 -20 -8z"/>
<path d="M580 461 c0 -5 7 -11 14 -14 10 -4 13 -1 9 9 -6 15 -23 19 -23 5z"/>
<path d="M1020 461 c0 -5 7 -12 16 -15 24 -9 28 -7 14 9 -14 17 -30 20 -30 6z"/>
<path d="M1070 443 c0 -10 4 -14 8 -8 4 6 11 13 16 18 5 4 2 7 -7 7 -10 0 -17
-8 -17 -17z"/>
<path d="M1961 444 c0 -11 3 -14 6 -6 3 7 2 16 -1 19 -3 4 -6 -2 -5 -13z"/>
<path d="M640 441 c0 -9 24 -21 41 -21 5 0 9 5 9 11 0 5 -4 8 -9 4 -5 -3 -12
-1 -16 5 -8 12 -25 13 -25 1z"/>
<path d="M711 433 c0 -13 7 -27 19 -33 16 -8 20 -8 20 4 0 8 -5 18 -12 22 -7
4 -8 3 -4 -4 4 -7 3 -12 -3 -12 -5 0 -12 10 -14 23 l-4 22 -2 -22z"/>
<path d="M1980 440 c0 -5 5 -10 11 -10 5 0 7 5 4 10 -3 6 -8 10 -11 10 -2 0
-4 -4 -4 -10z"/>
<path d="M1150 415 c7 -8 18 -15 24 -14 7 0 6 2 -2 6 -6 2 -10 9 -6 14 3 5 -2
9 -12 9 -13 0 -14 -3 -4 -15z"/>
<path d="M2064 415 c4 -24 16 -30 16 -7 0 12 -4 22 -9 22 -5 0 -8 -7 -7 -15z"/>
<path d="M1201 401 c-10 -6 -10 -10 -1 -16 13 -8 24 -1 19 14 -3 6 -10 7 -18
2z"/>
<path d="M1690 376 c0 -2 9 -6 20 -9 11 -3 18 -1 14 4 -5 9 -34 13 -34 5z"/>
<path d="M1745 371 c-7 -13 8 -21 47 -25 18 -3 44 -7 58 -11 l25 -6 -25 15
c-14 8 -43 16 -65 16 -30 0 -36 3 -25 10 9 6 10 10 3 10 -6 0 -14 -4 -18 -9z"/>
<path d="M1322 361 c-11 -7 -11 -9 2 -14 10 -4 16 -1 16 8 0 17 -1 17 -18 6z"/>
<path d="M1365 350 c-3 -6 1 -7 9 -4 18 7 21 14 7 14 -6 0 -13 -4 -16 -10z"/>
<path d="M1391 341 c-8 -6 -9 -11 -3 -15 6 -3 14 -1 17 5 9 14 2 20 -14 10z"/>
<path d="M1439 327 c6 -8 8 -17 4 -20 -3 -4 -1 -7 5 -7 14 0 14 2 6 24 -3 9
-11 16 -16 16 -7 0 -6 -5 1 -13z"/>
<path d="M1469 311 c7 -11 17 -21 24 -21 8 0 8 3 -1 9 -8 4 -13 12 -12 17 1 5
-4 10 -10 12 -9 3 -9 -1 -1 -17z"/>
<path d="M1910 309 c0 -6 7 -9 15 -5 8 3 15 2 15 -3 0 -4 7 -8 15 -8 23 0 18
14 -7 21 -32 8 -38 7 -38 -5z"/>
<path d="M1820 229 c0 -5 5 -7 10 -4 6 3 10 8 10 11 0 2 -4 4 -10 4 -5 0 -10
-5 -10 -11z"/>
<path d="M1830 190 c0 -14 26 -23 41 -15 8 6 7 10 -2 16 -19 12 -39 11 -39 -1z"/>
<path d="M1914 169 c-3 -6 -2 -14 3 -18 6 -3 13 -13 16 -21 4 -11 6 -10 6 4 1
16 3 17 18 5 9 -8 14 -9 10 -2 -4 6 -4 13 0 16 5 2 2 2 -4 1 -7 -2 -13 1 -13
6 0 5 -7 6 -17 3 -11 -4 -14 -3 -9 5 4 7 5 12 2 12 -3 0 -8 -5 -12 -11z"/>
</g>
</svg>
